HIERARCHY
ROOT Hips
{
  OFFSET 0 0.240689 0
  CHANNELS 6 Xposition Yposition Zposition Zrotation Xrotation Yrotation
  JOINT Bip01_Spine0
  {
    OFFSET 0 -24.7459 49.7988
    CHANNELS 6 Xposition Yposition Zposition Zrotation Xrotation Yrotation
    JOINT Bip01_Pelvis
    {
      OFFSET 0 0 0
      CHANNELS 6 Xposition Yposition Zposition Zrotation Xrotation Yrotation
      JOINT Bip01_Spine0_Tail
      {
        OFFSET -6.47486 -3.86022 0
        CHANNELS 6 Xposition Yposition Zposition Zrotation Xrotation Yrotation
        JOINT Bip01_Spine0_Tail1
        {
          OFFSET 10.3837 -0.00825882 0
          CHANNELS 6 Xposition Yposition Zposition Zrotation Xrotation Yrotation
          JOINT Bip01_Spine0_Tail2
          {
            OFFSET 10.3837 -0.00826263 0
            CHANNELS 6 Xposition Yposition Zposition Zrotation Xrotation Yrotation
            JOINT Bip01_Spine0_Tail3
            {
              OFFSET 10.3837 -0.00825882 0
              CHANNELS 6 Xposition Yposition Zposition Zrotation Xrotation Yrotation
              JOINT Bip01_Spine0_Tail4
              {
                OFFSET 10.3837 -0.00826263 0
                CHANNELS 6 Xposition Yposition Zposition Zrotation Xrotation Yrotation
                End Site
                {
                  OFFSET 0 0 0
                }
              }
            }
          }
        }
      }
      JOINT Bip01_R_Thigh
      {
        OFFSET 0 -1.52588e-005 -8.75617
        CHANNELS 6 Xposition Yposition Zposition Zrotation Xrotation Yrotation
        JOINT Bip01_R_Calf
        {
          OFFSET 19.7638 0 0
          CHANNELS 6 Xposition Yposition Zposition Zrotation Xrotation Yrotation
          JOINT Bip01_R_Foot
          {
            OFFSET 18.6534 0 0
            CHANNELS 6 Xposition Yposition Zposition Zrotation Xrotation Yrotation
            JOINT Bip01_R_Toe0
            {
              OFFSET 5.09145 13.9567 0
              CHANNELS 6 Xposition Yposition Zposition Zrotation Xrotation Yrotation
              JOINT Bip01_R_Toe01
              {
                OFFSET 4.28803 0 0
                CHANNELS 6 Xposition Yposition Zposition Zrotation Xrotation Yrotation
                JOINT Bip01_R_Toe02
                {
                  OFFSET 3.85801 0 0
                  CHANNELS 6 Xposition Yposition Zposition Zrotation Xrotation Yrotation
                  End Site
                  {
                    OFFSET 0 0 0
                  }
                }
              }
            }
          }
        }
      }
      JOINT Bip01_L_Thigh
      {
        OFFSET 0 1.52588e-005 8.75617
        CHANNELS 6 Xposition Yposition Zposition Zrotation Xrotation Yrotation
        JOINT Bip01_L_Calf
        {
          OFFSET 19.7638 0 0
          CHANNELS 6 Xposition Yposition Zposition Zrotation Xrotation Yrotation
          JOINT Bip01_L_Foot
          {
            OFFSET 18.6534 0 0
            CHANNELS 6 Xposition Yposition Zposition Zrotation Xrotation Yrotation
            JOINT Bip01_L_Toe0
            {
              OFFSET 5.09144 13.9567 0
              CHANNELS 6 Xposition Yposition Zposition Zrotation Xrotation Yrotation
              JOINT Bip01_L_Toe01
              {
                OFFSET 4.28802 0 0
                CHANNELS 6 Xposition Yposition Zposition Zrotation Xrotation Yrotation
                JOINT Bip01_L_Toe02
                {
                  OFFSET 3.85801 0 0
                  CHANNELS 6 Xposition Yposition Zposition Zrotation Xrotation Yrotation
                  End Site
                  {
                    OFFSET 0 0 0
                  }
                }
              }
            }
          }
        }
      }
      JOINT Bip01_Spine
      {
        OFFSET 9.14835 -0.00640869 -1.1e-005
        CHANNELS 6 Xposition Yposition Zposition Zrotation Xrotation Yrotation
        JOINT Bip01_Spine1
        {
          OFFSET 8.04366 -0.00638199 0
          CHANNELS 6 Xposition Yposition Zposition Zrotation Xrotation Yrotation
          JOINT Bip01_Spine2
          {
            OFFSET 8.04367 -0.00639343 0
            CHANNELS 6 Xposition Yposition Zposition Zrotation Xrotation Yrotation
            JOINT Bip01_Spine3
            {
              OFFSET 8.04304 -0.00831222 0
              CHANNELS 6 Xposition Yposition Zposition Zrotation Xrotation Yrotation
              JOINT Bip01_Neck
              {
                OFFSET 10.6685 1.06813 0
                CHANNELS 6 Xposition Yposition Zposition Zrotation Xrotation Yrotation
                JOINT Bip01_R_Clavicle
                {
                  OFFSET -3.21661 -4.89635 -9.04802
                  CHANNELS 6 Xposition Yposition Zposition Zrotation Xrotation Yrotation
                  JOINT Bip01_R_UpperArm
                  {
                    OFFSET 19.0492 0 0
                    CHANNELS 6 Xposition Yposition Zposition Zrotation Xrotation Yrotation
                    JOINT Bip01_R_Forearm
                    {
                      OFFSET 10.3706 0 0
                      CHANNELS 6 Xposition Yposition Zposition Zrotation Xrotation Yrotation
                      JOINT Bip01_R_Hand
                      {
                        OFFSET 22.8632 0 0
                        CHANNELS 6 Xposition Yposition Zposition Zrotation Xrotation Yrotation
                        JOINT Bip01_R_Finger0
                        {
                          OFFSET 6.48259 0.103651 0.504496
                          CHANNELS 6 Xposition Yposition Zposition Zrotation Xrotation Yrotation
                          JOINT Bip01_R_Finger01
                          {
                            OFFSET 3.66847 0 0
                            CHANNELS 6 Xposition Yposition Zposition Zrotation Xrotation Yrotation
                            End Site
                            {
                              OFFSET 0 0 0
                            }
                          }
                        }
                      }
                    }
                  }
                }
                JOINT Bip01_L_Clavicle
                {
                  OFFSET -3.21661 -4.89641 9.04797
                  CHANNELS 6 Xposition Yposition Zposition Zrotation Xrotation Yrotation
                  JOINT Bip01_L_UpperArm
                  {
                    OFFSET 19.0492 0 0
                    CHANNELS 6 Xposition Yposition Zposition Zrotation Xrotation Yrotation
                    JOINT Bip01_L_Forearm
                    {
                      OFFSET 10.3706 0 0
                      CHANNELS 6 Xposition Yposition Zposition Zrotation Xrotation Yrotation
                      JOINT Bip01_L_Hand
                      {
                        OFFSET 22.8631 0 0
                        CHANNELS 6 Xposition Yposition Zposition Zrotation Xrotation Yrotation
                        JOINT Bip01_L_Finger0
                        {
                          OFFSET 6.48257 0.103655 -0.504492
                          CHANNELS 6 Xposition Yposition Zposition Zrotation Xrotation Yrotation
                          JOINT Bip01_L_Finger01
                          {
                            OFFSET 3.66844 0 0
                            CHANNELS 6 Xposition Yposition Zposition Zrotation Xrotation Yrotation
                            End Site
                            {
                              OFFSET 0 0 0
                            }
                          }
                        }
                      }
                    }
                  }
                }
                JOINT Bip01_Neck1
                {
                  OFFSET 7.52459 -0.00656509 0
                  CHANNELS 6 Xposition Yposition Zposition Zrotation Xrotation Yrotation
                  JOINT Bip01_Neck2
                  {
                    OFFSET 8.4783 -0.00588226 0
                    CHANNELS 6 Xposition Yposition Zposition Zrotation Xrotation Yrotation
                    JOINT Bip01_Head
                    {
                      OFFSET 8.41606 0 0
                      CHANNELS 6 Xposition Yposition Zposition Zrotation Xrotation Yrotation
                      JOINT EyesBlue
                      {
                        OFFSET 0 0 0
                        CHANNELS 6 Xposition Yposition Zposition Zrotation Xrotation Yrotation
                        JOINT EyesBlue_2
                        {
                          OFFSET 0 -0.500007 0
                          CHANNELS 6 Xposition Yposition Zposition Zrotation Xrotation Yrotation
                          End Site
                          {
                            OFFSET 0 0 0
                          }
                        }
                      }
                      JOINT Bip01_Head2_Eyeleds
                      {
                        OFFSET 6.52751 7.61746 2.2e-005
                        CHANNELS 6 Xposition Yposition Zposition Zrotation Xrotation Yrotation
                        End Site
                        {
                          OFFSET 0 0 0
                        }
                      }
                      JOINT Bip01_Head_Muzzle
                      {
                        OFFSET 2.88628 13.9448 3.88994
                        CHANNELS 6 Xposition Yposition Zposition Zrotation Xrotation Yrotation
                        End Site
                        {
                          OFFSET 0 0 0
                        }
                      }
                      JOINT Bip01_Head1_Jaw
                      {
                        OFFSET 0.271065 1.32405 0
                        CHANNELS 6 Xposition Yposition Zposition Zrotation Xrotation Yrotation
                        JOINT _Bip01_Head11_TungeControler
                        {
                          OFFSET 4.61616 5.82872 0
                          CHANNELS 6 Xposition Yposition Zposition Zrotation Xrotation Yrotation
                          JOINT _Bip01_Ponytail3_tunge
                          {
                            OFFSET 5.17785 2.98805 0
                            CHANNELS 6 Xposition Yposition Zposition Zrotation Xrotation Yrotation
                            JOINT Bip01_Ponytail31
                            {
                              OFFSET 5.57569 0 0
                              CHANNELS 6 Xposition Yposition Zposition Zrotation Xrotation Yrotation
                              JOINT Bip01_Ponytail32
                              {
                                OFFSET 2.93165 0 0
                                CHANNELS 6 Xposition Yposition Zposition Zrotation Xrotation Yrotation
                                JOINT Bip01_Ponytail3Nub
                                {
                                  OFFSET 3.30155 0 0
                                  CHANNELS 6 Xposition Yposition Zposition Zrotation Xrotation Yrotation
                                  End Site
                                  {
                                    OFFSET 0 0 0
                                  }
                                }
                              }
                            }
                          }
                        }
                        JOINT Bip01_Head_JawNub
                        {
                          OFFSET 15.5776 -0.000389099 0
                          CHANNELS 6 Xposition Yposition Zposition Zrotation Xrotation Yrotation
                          End Site
                          {
                            OFFSET 0 0 0
                          }
                        }
                      }
                      JOINT Bip01_Ponytail2
                      {
                        OFFSET 9.40334 1.03973 -6.51764
                        CHANNELS 6 Xposition Yposition Zposition Zrotation Xrotation Yrotation
                        JOINT Bip01_Ponytail21
                        {
                          OFFSET 2.77018 -0.00640106 1.33514e-005
                          CHANNELS 6 Xposition Yposition Zposition Zrotation Xrotation Yrotation
                          End Site
                          {
                            OFFSET 0 0 0
                          }
                        }
                      }
                      JOINT Bip01_Ponytail1
                      {
                        OFFSET 9.40368 1.03969 6.51768
                        CHANNELS 6 Xposition Yposition Zposition Zrotation Xrotation Yrotation
                        JOINT Bip01_Ponytail11
                        {
                          OFFSET 2.77018 -0.00640487 0
                          CHANNELS 6 Xposition Yposition Zposition Zrotation Xrotation Yrotation
                          End Site
                          {
                            OFFSET 0 0 0
                          }
                        }
                      }
                    }
                  }
                }
              }
            }
          }
        }
      }
    }
  }
}
MOTION
Frames:	4
Frame Time:	0.0333333
0 0.240689 0 -0 -90 -0 -0.262263 -30.4334 46.5975 90 -3.50835e-015 90 0 0 0 -89.9998 -0.000202876 -94.0127 -6.45971 -3.86019 0.453019 138.409 2.67766 5.28082 10.3791 -0.007102 3.50002e-005 -29.7604 0.000312389 0.000539383 10.3833 -0.008132 0.000116 0.500427 0.000510132 0.000505695 10.3851 -0.007953 0.000138 13.1322 0.000959865 0.000773315 10.3818 -0.00799101 9.60001e-005 -10.7459 -0.0484276 0.144874 1.1e-005 -7.00011e-006 -8.75617 -118.383 -9.96476 170.888 19.7638 1e-006 3.55271e-015 -88.0291 9.77526e-007 0.000290502 18.6534 1.42109e-014 -3.55271e-015 -21.0101 2.46295 7.07709 5.09144 13.9567 1.46589e-006 114.819 3.10065 1.66912 4.288 -3e-006 1e-006 64.9988 0.00146375 0.000319244 3.858 -3.08198e-013 -1e-006 -45 -2.08295e-005 -5.70729e-006 -1.5e-005 1.90001e-005 8.75617 -131.292 -4.72165 179.362 19.7638 1e-006 -8.88179e-015 -85.108 -9.12012e-006 1.08291e-005 18.6534 7.10543e-015 1.77636e-015 -24.3346 1.44027 -5.82991 5.09143 13.9567 -6.26148e-007 115.001 0.000706977 4.99899 4.28801 -1e-006 3.90799e-014 64.9997 0.00228724 0.00051096 3.858 -1.06581e-014 0 -44.9998 0.000650807 0.00155194 9.12417 -0.006141 -0.639957 -14.5726 -1.02467 3.93628 8.04483 -0.006298 -9.99995e-007 10.4837 0.0117488 0.0546021 8.04483 -0.006301 -9.99943e-007 10.4837 0.0117468 0.0546021 8.04456 -0.008296 -1.00015e-006 6.18469 0.0116367 0.0535563 10.6708 1.06817 1.01202e-006 9.52283 0.00170849 -0.000168105 -4.86522 -3.26663 -9.04791 170.434 -85.4171 115.002 19.0492 1.77636e-015 0 82.5664 17.9155 -103.369 10.3706 -2.45137e-013 1e-006 -97.8592 4.66201e-005 -0.00074705 22.8631 7.10543e-015 7.54952e-015 13.9195 -0.6964 8.2451 6.48256 0.103653 0.504496 -78.3097 -0.298844 -15.494 3.66843 -1.3145e-013 1e-006 40.108 1.36658e-005 3.95608e-006 -4.86501 -3.26651 9.04778 170.456 85.4171 -115.022 19.0492 -5.32907e-015 -1.77636e-014 83.7802 -16.4878 99.0361 10.3706 3.55271e-015 -3.55272e-015 -98.7585 0.000233523 -0.00302999 22.8631 1e-006 1e-006 13.8528 -8.65124 -6.34051 6.48255 0.103649 -0.504496 -75.9417 0.957459 15.4724 3.66843 2e-006 1e-006 40.109 -3.2816e-005 1.7927e-005 7.52479 -0.006511 3.2e-005 -10.6465 6.65376e-005 8.01404e-005 8.4759 -0.006526 7.59999e-005 8.21493 0.00171847 -0.00014212 8.41605 7.10543e-015 -1.27676e-015 -107.927 0.213698 -0.0231158 -3e-006 3e-006 -3e-006 -23.1098 1.37701e-015 90 1.28582e-008 -0.500015 -1.32818e-005 -9.63804e-008 90 90 0 0 0 -113.549 1.52588e-005 -180 2.8863 13.9448 3.88993 -22.9892 1.37021e-015 90 0 0 0 -85.3358 -7.01671e-015 -180 0 0 0 -120.289 -2.26533e-007 -1.95831e-005 0 0 0 127.684 0.435438 -1.16609 0 0 0 -0.168468 9.55998e-007 4.83714e-008 0 0 0 -22.6319 1.66119e-005 5.96261e-006 0 0 0 -26.1943 -6.19592e-007 -1.0197e-006 15.5776 -0.000396 -7.00001e-006 -3.68325e-038 1.35888e-018 1.55301e-018 9.40249 1.04114 -6.51523 -62.5441 -44.6332 37.2157 2.77017 -0.006397 1.89015e-010 2.43503 1.13431e-005 9.65517e-006 9.40294 1.04103 6.51547 -62.5446 44.6324 -37.2143 2.77018 -0.006404 9.99815e-007 2.43503 1.02748e-005 -2.20276e-006 
0 0.240689 0 -0 -90 -0 -0.262263 -30.4466 46.5975 90 0.00607446 89.8697 0 0 0 -90 -3.29429e-006 -94.1268 -6.45971 -3.86019 0.46586 138.524 2.75146 4.76574 10.3791 -0.007102 3.50001e-005 -29.7604 0.000312428 0.000539409 10.3833 -0.008132 0.000116 0.500427 0.000510131 0.000505695 10.3851 -0.007953 0.000138 13.1322 0.00095985 0.000773313 10.3818 -0.00799101 9.60001e-005 -11.1969 -0.134709 0.405457 1.1e-005 -7e-006 -8.75617 -118.32 -10.0672 170.835 19.7638 1e-006 7.10543e-015 -88.0291 9.81854e-007 0.000290503 18.6534 0 0 -21.0101 2.46295 7.07709 5.09144 13.9567 1.45527e-006 114.819 3.10065 1.66912 4.288 -3e-006 1e-006 64.9988 0.00146371 0.000319244 3.858 -3.02869e-013 -1e-006 -45 -2.08008e-005 -5.6742e-006 -1.5e-005 1.9e-005 8.75617 -131.3 -4.80937 179.289 19.7638 1e-006 -1.77636e-015 -85.108 -9.11846e-006 1.08274e-005 18.6534 -7.10543e-015 3.55271e-015 -24.3935 1.44577 -5.82734 5.09143 13.9567 -6.22978e-007 115.001 0.000706976 4.99899 4.28801 -1e-006 4.26326e-014 64.9997 0.00228726 0.000510964 3.858 5.32907e-015 -1.77636e-015 -44.9998 0.000650811 0.00155192 9.1229 -0.006141 -0.658097 -14.5706 -1.05329 4.04637 8.04483 -0.006298 -9.99995e-007 10.5125 0.0117763 0.0545961 8.04483 -0.006301 -9.99944e-007 10.5125 0.0117742 0.0545962 8.04456 -0.008296 -1.00015e-006 6.2136 0.0116637 0.0535504 10.6708 1.06817 1.01204e-006 9.46554 0.00170865 -0.000166397 -4.86194 -3.27152 -9.04791 170.49 -85.4169 115 19.0492 1.77636e-015 1.77636e-014 82.5688 18.0798 -103.331 10.3706 -2.38032e-013 1e-006 -97.8191 4.61185e-005 -0.000747197 22.8631 -1.06581e-014 5.77317e-015 13.9867 -0.659067 8.26477 6.48256 0.103653 0.504496 -78.3097 -0.298844 -15.494 3.66843 -1.5099e-013 1e-006 40.108 1.35894e-005 4.02445e-006 -4.86175 -3.2714 9.04778 170.534 85.4174 -115.043 19.0492 0 7.10543e-015 83.79 -16.6497 99.0334 10.3706 -3.55271e-015 -3.55272e-015 -98.7214 0.000231554 -0.00303006 22.8631 1e-006 1e-006 13.9197 -8.66294 -6.34669 6.48255 0.103649 -0.504496 -75.9417 0.957458 15.4724 3.66843 2e-006 1e-006 40.109 -3.25531e-005 1.77132e-005 7.52479 -0.006511 3.2e-005 -10.7041 6.6449e-005 8.02082e-005 8.4759 -0.006526 7.59999e-005 8.15723 0.00171862 -0.000140391 8.41605 7.10543e-015 -3.88578e-016 -107.87 0.213519 -0.023378 -3e-006 3e-006 -3e-006 -23.1098 1.37701e-015 90 1.28598e-008 -0.500015 -1.32817e-005 3.66173e-008 90 90 0 0 0 -113.549 1.52588e-005 -180 2.8863 13.9448 3.88993 -22.9892 1.37021e-015 90 0 0 0 -84.6702 -7.01671e-015 -180 0 0 0 -117.999 -9.88942e-007 -1.95958e-005 0 0 0 124.047 0.690176 -1.87068 0 0 0 0.0294691 -3.26974e-007 8.77462e-009 0 0 0 -22.846 -1.18387e-005 -6.49669e-006 0 0 0 -26.1943 -8.44405e-007 -1.58099e-006 15.5776 -0.000396 -7.00001e-006 7.95139e-016 1.06769e-018 -0 9.40249 1.04114 -6.51523 -62.9449 -45.0824 36.6584 2.77017 -0.006397 1.78982e-010 2.43503 1.13595e-005 9.65135e-006 9.40294 1.04103 6.51547 -62.9453 45.0818 -36.6576 2.77018 -0.006404 9.99825e-007 2.43503 1.02948e-005 -2.19903e-006 
0 0.240689 0 -0 -90 -0 -0.262263 -30.4781 46.5975 90 0.000419149 89.7255 0 0 0 -89.9999 -0.000131241 -94.2522 -6.45971 -3.86019 0.480046 138.655 2.83101 4.06463 10.3791 -0.007102 3.50001e-005 -29.7604 0.000312489 0.00053945 10.3833 -0.008132 0.000116 0.500427 0.000510131 0.000505695 10.3851 -0.007953 0.000138 13.1322 0.000959828 0.000773311 10.3818 -0.00799101 9.60001e-005 -12.0072 -0.0839532 0.249199 1.1e-005 -7.00007e-006 -8.75617 -118.215 -10.1811 170.779 19.7638 1e-006 3.55271e-015 -88.0291 9.9042e-007 0.000290504 18.6534 0 3.55271e-015 -21.0101 2.46295 7.07709 5.09144 13.9567 1.4373e-006 114.819 3.10065 1.66912 4.288 -3e-006 1e-006 64.9988 0.00146362 0.000319243 3.858 -3.08198e-013 -1e-006 -45 -2.07485e-005 -5.61397e-006 -1.5e-005 1.90001e-005 8.75617 -131.264 -4.90631 179.211 19.7638 1e-006 8.88179e-015 -85.108 -9.11559e-006 1.08244e-005 18.6534 0 0 -24.4944 1.45422 -5.82076 5.09143 13.9567 -6.18984e-007 115.001 0.000706971 4.99899 4.28801 -1e-006 4.44089e-014 64.9997 0.00228728 0.000510966 3.858 -3.55271e-015 -5.32907e-015 -44.9998 0.000650816 0.00155191 9.12143 -0.006141 -0.678137 -14.5684 -1.08499 4.16837 8.04483 -0.006298 -9.99995e-007 10.5816 0.011842 0.0545819 8.04483 -0.006301 -9.99946e-007 10.5816 0.01184 0.054582 8.04456 -0.008296 -1.00016e-006 6.28302 0.0117286 0.0535363 10.6708 1.06817 1.01208e-006 9.32784 0.00170905 -0.000162289 -4.85405 -3.28317 -9.04791 170.63 -85.4171 115.003 19.0492 -3.55271e-015 2.4869e-014 82.591 18.4715 -103.293 10.3706 -2.4869e-013 1e-006 -97.7216 4.4866e-005 -0.000747466 22.8631 3.55271e-015 -6.66135e-015 14.1471 -0.613823 8.30193 6.48256 0.103653 0.504496 -78.3097 -0.298844 -15.494 3.66843 -1.21236e-013 1e-006 40.108 1.345e-005 4.14042e-006 -4.85385 -3.28302 9.04778 170.719 85.4182 -115.091 19.0492 -5.32907e-015 0 83.8148 -17.0375 99.0323 10.3706 0 -7.10543e-015 -98.6289 0.000226646 -0.00303028 22.8631 1e-006 1e-006 14.0792 -8.69091 -6.36134 6.48255 0.103649 -0.504496 -75.9417 0.957458 15.4724 3.66843 2e-006 1e-006 40.109 -3.20685e-005 1.73362e-005 7.52479 -0.006511 3.2e-005 -10.8418 6.62387e-005 8.03699e-005 8.4759 -0.006526 7.59999e-005 8.01978 0.00171896 -0.000136269 8.41605 -1.42109e-014 2.19269e-015 -107.734 0.213905 -0.0237429 -3e-006 3e-006 -3e-006 -23.1098 1.37701e-015 90 1.2861e-008 -0.500015 -1.32814e-005 3.63915e-008 90 90 0 0 0 -113.549 1.52588e-005 -180 2.8863 13.9448 3.88993 -22.9892 1.37021e-015 90 0 0 0 -83.9978 -7.01671e-015 -180 0 0 0 -115.685 -1.76688e-006 -1.95655e-005 0 0 0 120.217 0.967238 -2.61046 0 0 0 0.229402 1.11985e-007 8.43668e-008 0 0 0 -23.0623 -1.47033e-005 -8.29821e-006 0 0 0 -26.1943 -9.71057e-007 -2.11312e-006 15.5776 -0.000396 -7.00001e-006 -1.59028e-015 4.85314e-019 -7.76503e-019 9.40249 1.04114 -6.51523 -63.9385 -46.1384 35.2807 2.77017 -0.006397 1.61382e-010 2.43503 1.13944e-005 9.64465e-006 9.40294 1.04103 6.51547 -63.9389 46.1376 -35.2805 2.77018 -0.006404 9.99842e-007 2.43503 1.03491e-005 -2.19254e-006 
0 0.240689 0 -0 -90 -0 -0.262263 -30.5108 46.5975 90 0.000163848 89.5763 0 0 0 -89.9997 -0.000273742 -94.3782 -6.45971 -3.86019 0.494318 138.788 2.91063 3.35156 10.3791 -0.007102 3.50001e-005 -29.7604 0.000312551 0.000539492 10.3833 -0.008132 0.000116 0.500427 0.00051013 0.000505695 10.3851 -0.007953 0.000138 13.1322 0.000959805 0.000773308 10.3818 -0.00799101 9.60001e-005 -12.84 -0.0244483 0.0663355 1.1e-005 -7.00013e-006 -8.75617 -118.107 -10.2957 170.722 19.7638 1e-006 8.88179e-015 -88.0291 9.99426e-007 0.000290506 18.6534 1.42109e-014 1.77636e-015 -21.0101 2.46295 7.07709 5.09144 13.9567 1.41887e-006 114.819 3.10065 1.66912 4.288 -3e-006 1e-006 64.9988 0.00146353 0.000319242 3.858 -3.05533e-013 -1e-006 -45 -2.06943e-005 -5.55146e-006 -1.5e-005 1.90001e-005 8.75617 -131.226 -5.00381 179.133 19.7638 1e-006 5.32907e-015 -85.108 -9.11263e-006 1.08213e-005 18.6534 0 -3.55271e-015 -24.598 1.46284 -5.81392 5.09143 13.9567 -6.1486e-007 115.001 0.000706966 4.99899 4.28801 -1e-006 4.08562e-014 64.9997 0.0022873 0.000510968 3.858 0 5.32907e-015 -44.9998 0.000650822 0.00155189 9.11995 -0.006141 -0.698299 -14.566 -1.11689 4.29115 8.04483 -0.006298 -9.99995e-007 10.6531 0.0119102 0.0545671 8.04483 -0.006301 -9.99948e-007 10.6531 0.0119082 0.0545672 8.04456 -0.008296 -1.00016e-006 6.35504 0.0117959 0.0535215 10.6708 1.06817 1.01212e-006 9.18501 0.00170945 -0.000158028 -4.84588 -3.29525 -9.04791 170.776 -85.4173 115.006 19.0492 3.55271e-015 3.55272e-015 82.6131 18.8792 -103.247 10.3706 -2.34479e-013 1e-006 -97.6203 4.35672e-005 -0.000747744 22.8631 -3.19744e-014 -3.99681e-015 14.3134 -0.568079 8.3402 6.48256 0.103653 0.504496 -78.3097 -0.298844 -15.494 3.66843 -1.32783e-013 1e-006 40.108 1.33296e-005 4.24786e-006 -4.84565 -3.29508 9.04778 170.911 85.4189 -115.141 19.0492 0 0 83.8396 -17.4412 99.0243 10.3706 -1.06581e-014 8.88179e-016 -98.5328 0.000221548 -0.0030305 22.8631 1e-006 1e-006 14.2445 -8.72006 -6.37638 6.48255 0.103649 -0.504496 -75.9417 0.957457 15.4724 3.66843 2e-006 1e-006 40.109 -3.16232e-005 1.69884e-005 7.52479 -0.006511 3.2e-005 -10.9845 6.60189e-005 8.05372e-005 8.4759 -0.006526 7.59999e-005 7.87719 0.0017193 -0.000131993 8.41605 0 -2.83107e-015 -107.593 0.214341 -0.0241121 -3e-006 3e-006 -3e-006 -23.1098 1.37701e-015 90 1.28622e-008 -0.500015 -1.32811e-005 -9.49813e-008 90 90 0 0 0 -113.549 1.52588e-005 -180 2.8863 13.9448 3.88993 -22.9892 1.37021e-015 90 0 0 0 -83.3255 -7.01671e-015 -180 0 0 0 -113.372 -2.54545e-006 -1.95008e-005 0 0 0 116.382 1.24525 -3.35266 0 0 0 0.429308 5.64619e-007 1.48726e-007 0 0 0 -23.2785 -1.28603e-005 -8.06736e-006 0 0 0 -26.1943 -1.01171e-006 -2.6005e-006 15.5776 -0.000396 -7.00001e-006 1.59028e-015 -1.94126e-019 -7.76503e-019 9.40249 1.04114 -6.51523 -65.0338 -47.2239 33.8044 2.77017 -0.006397 1.43871e-010 2.43503 1.14369e-005 9.63799e-006 9.40294 1.04103 6.51547 -65.0341 47.2229 -33.8049 2.77018 -0.006404 9.99859e-007 2.43503 1.04124e-005 -2.18614e-006 
